<svg xmlns="http://www.w3.org/2000/svg" width="435" height="410" viewBox="0 0 435 410">
  <g id="Grupo_68171" data-name="Grupo 68171" transform="translate(-588 -1503)">
    <rect id="Rectángulo_7105" data-name="Rectángulo 7105" width="275" height="78" rx="10" transform="translate(663 1503)" fill="#339ce9"/>
    <path id="Trazado_118590" data-name="Trazado 118590" d="M4.5-4.824V0H1.074V-14.219H6.748a6.608,6.608,0,0,1,2.886.6,4.526,4.526,0,0,1,1.943,1.709,4.667,4.667,0,0,1,.688,2.515,4.114,4.114,0,0,1-1.489,3.325A6.179,6.179,0,0,1,6.689-4.824Zm0-2.646H6.748a2.118,2.118,0,0,0,1.519-.5,1.85,1.85,0,0,0,.522-1.406,2.287,2.287,0,0,0-.537-1.592,1.9,1.9,0,0,0-1.465-.605H4.5Zm15.83-.117-1.084-.078a1.947,1.947,0,0,0-1.992.977V0H13.965V-10.566h3.086l.107,1.357a2.548,2.548,0,0,1,2.314-1.553,3.209,3.209,0,0,1,.918.117Zm.42,2.207A6.236,6.236,0,0,1,21.367-8.2a4.4,4.4,0,0,1,1.768-1.9,5.323,5.323,0,0,1,2.705-.664,4.858,4.858,0,0,1,3.74,1.47,5.64,5.64,0,0,1,1.367,4v.117a5.472,5.472,0,0,1-1.372,3.921A4.871,4.871,0,0,1,25.859.2a4.927,4.927,0,0,1-3.623-1.353,5.29,5.29,0,0,1-1.475-3.667Zm3.291.205A3.932,3.932,0,0,0,24.5-3.027a1.529,1.529,0,0,0,1.357.684q1.758,0,1.8-2.705v-.332q0-2.842-1.816-2.842-1.65,0-1.787,2.451Zm7.939-.186a6.455,6.455,0,0,1,1.084-3.955,3.568,3.568,0,0,1,3.027-1.445,3.035,3.035,0,0,1,2.383,1.113V-15h3.3V0H38.818l-.166-1.133A3.116,3.116,0,0,1,36.074.2,3.562,3.562,0,0,1,33.086-1.25,6.659,6.659,0,0,1,31.982-5.361Zm3.291.205q0,2.813,1.641,2.813a1.62,1.62,0,0,0,1.563-.918V-7.285a1.576,1.576,0,0,0-1.543-.937q-1.523,0-1.65,2.461ZM49.941-1.143A3.393,3.393,0,0,1,47.119.2,3.328,3.328,0,0,1,44.487-.815a4.251,4.251,0,0,1-.894-2.905v-6.846h3.291V-3.7A1.183,1.183,0,0,0,48.2-2.344a1.72,1.72,0,0,0,1.611-.811v-7.412h3.311V0H50.039Zm9.453-1.2a1.464,1.464,0,0,0,1.074-.376,1.379,1.379,0,0,0,.371-1.05h3.086A3.653,3.653,0,0,1,62.681-.918,4.631,4.631,0,0,1,59.473.2,4.689,4.689,0,0,1,55.84-1.25a5.7,5.7,0,0,1-1.328-4v-.137A6.436,6.436,0,0,1,55.1-8.218a4.3,4.3,0,0,1,1.7-1.885,5.081,5.081,0,0,1,2.637-.659,4.573,4.573,0,0,1,3.271,1.143,4.053,4.053,0,0,1,1.211,3.1H60.84a1.807,1.807,0,0,0-.4-1.26,1.382,1.382,0,0,0-1.074-.439q-1.279,0-1.494,1.631A11.507,11.507,0,0,0,57.8-5.166a4.52,4.52,0,0,0,.381,2.207A1.319,1.319,0,0,0,59.395-2.344Zm9.756-10.85v2.627h1.738v2.285H69.15v4.834a1.234,1.234,0,0,0,.215.83,1.152,1.152,0,0,0,.85.234,4.828,4.828,0,0,0,.82-.059V-.088A6.074,6.074,0,0,1,69.18.2a3.448,3.448,0,0,1-2.51-.8,3.282,3.282,0,0,1-.811-2.432V-8.281H64.512v-2.285h1.348v-2.627Zm2.324,7.813A6.236,6.236,0,0,1,72.09-8.2a4.4,4.4,0,0,1,1.768-1.9,5.323,5.323,0,0,1,2.705-.664,4.858,4.858,0,0,1,3.74,1.47,5.64,5.64,0,0,1,1.367,4v.117A5.472,5.472,0,0,1,80.3-1.255,4.871,4.871,0,0,1,76.582.2a4.927,4.927,0,0,1-3.623-1.353,5.29,5.29,0,0,1-1.475-3.667Zm3.291.205a3.932,3.932,0,0,0,.459,2.148,1.529,1.529,0,0,0,1.357.684q1.758,0,1.8-2.705v-.332q0-2.842-1.816-2.842-1.65,0-1.787,2.451Z" transform="translate(759 1549)" fill="#fff"/>
    <path id="Trazado_114663" data-name="Trazado 114663" d="M-8546-10119v79.879" transform="translate(9346 11700)" fill="none" stroke="#000" stroke-width="2"/>
    <rect id="Rectángulo_7106" data-name="Rectángulo 7106" width="274" height="150" rx="10" transform="translate(663 1621)" fill="#bf3976"/>
    <path id="Trazado_118591" data-name="Trazado 118591" d="M9.893-6.035H4.5v3.4h6.367V0H1.074V-14.219h9.814v2.646H4.5v3H9.893Zm7.754,3.066a.76.76,0,0,0-.439-.674,6.685,6.685,0,0,0-1.67-.527,7.615,7.615,0,0,1-2.031-.718,3.4,3.4,0,0,1-1.221-1.079,2.577,2.577,0,0,1-.42-1.455,2.92,2.92,0,0,1,1.2-2.4,4.948,4.948,0,0,1,3.145-.942,5.482,5.482,0,0,1,3.359.947,2.962,2.962,0,0,1,1.27,2.49h-3.3q0-1.27-1.338-1.27a1.326,1.326,0,0,0-.869.288.892.892,0,0,0-.352.718.819.819,0,0,0,.43.713,4.06,4.06,0,0,0,1.372.449,11.857,11.857,0,0,1,1.655.42A3.007,3.007,0,0,1,20.82-3.066,2.767,2.767,0,0,1,19.536-.713,5.631,5.631,0,0,1,16.211.2a5.747,5.747,0,0,1-2.422-.488,4.05,4.05,0,0,1-1.66-1.328,3.007,3.007,0,0,1-.6-1.768h3.076A1.272,1.272,0,0,0,15.1-2.319a2.009,2.009,0,0,0,1.2.337,1.58,1.58,0,0,0,1.011-.273A.875.875,0,0,0,17.646-2.969Zm8.545-10.225v2.627H27.93v2.285H26.191v4.834a1.234,1.234,0,0,0,.215.83,1.152,1.152,0,0,0,.85.234,4.828,4.828,0,0,0,.82-.059V-.088A6.074,6.074,0,0,1,26.221.2a3.448,3.448,0,0,1-2.51-.8A3.282,3.282,0,0,1,22.9-3.037V-8.281H21.553v-2.285H22.9v-2.627Zm9.424,5.605-1.084-.078a1.947,1.947,0,0,0-1.992.977V0H29.248V-10.566h3.086l.107,1.357a2.548,2.548,0,0,1,2.314-1.553,3.209,3.209,0,0,1,.918.117ZM42.461,0a3.716,3.716,0,0,1-.312-.947A3.06,3.06,0,0,1,39.609.2a3.749,3.749,0,0,1-2.539-.9,2.875,2.875,0,0,1-1.045-2.271,2.955,2.955,0,0,1,1.27-2.6,6.468,6.468,0,0,1,3.691-.879H42v-.559q0-1.462-1.26-1.462A1.03,1.03,0,0,0,39.57-7.319H36.279a2.95,2.95,0,0,1,1.3-2.487,5.479,5.479,0,0,1,3.325-.956,4.8,4.8,0,0,1,3.193.986A3.429,3.429,0,0,1,45.3-7.07v4.678a4.79,4.79,0,0,0,.449,2.227V0ZM40.4-2.148a1.836,1.836,0,0,0,1.021-.264,1.653,1.653,0,0,0,.581-.6V-4.7h-.957q-1.719,0-1.719,1.543a.942.942,0,0,0,.3.728A1.1,1.1,0,0,0,40.4-2.148ZM50.957-13.193v2.627H52.7v2.285H50.957v4.834a1.234,1.234,0,0,0,.215.83,1.152,1.152,0,0,0,.85.234,4.828,4.828,0,0,0,.82-.059V-.088A6.074,6.074,0,0,1,50.986.2a3.448,3.448,0,0,1-2.51-.8,3.282,3.282,0,0,1-.811-2.432V-8.281H46.318v-2.285h1.348v-2.627ZM59.1.2a5.432,5.432,0,0,1-3.936-1.45,5.008,5.008,0,0,1-1.5-3.774V-5.3a6.489,6.489,0,0,1,.6-2.861,4.395,4.395,0,0,1,1.753-1.919,5.292,5.292,0,0,1,2.734-.679A4.574,4.574,0,0,1,62.266-9.38a5.43,5.43,0,0,1,1.289,3.853v1.279H57.012a2.372,2.372,0,0,0,.771,1.4,2.3,2.3,0,0,0,1.543.508,2.958,2.958,0,0,0,2.441-1.094l1.5,1.777A4.2,4.2,0,0,1,61.528-.308,5.891,5.891,0,0,1,59.1.2ZM58.73-8.223q-1.445,0-1.719,1.914h3.32v-.254a1.63,1.63,0,0,0-.4-1.226A1.593,1.593,0,0,0,58.73-8.223Zm5.762,2.861a7.134,7.134,0,0,1,.527-2.832,4.245,4.245,0,0,1,1.514-1.9,3.99,3.99,0,0,1,2.295-.669,3.173,3.173,0,0,1,2.578,1.113l.117-.918h2.988V-.4a4.455,4.455,0,0,1-.649,2.427,4.167,4.167,0,0,1-1.88,1.582,6.91,6.91,0,0,1-2.852.552,5.961,5.961,0,0,1-2.251-.439,4.063,4.063,0,0,1-1.665-1.143L66.592.645a3.018,3.018,0,0,0,2.422,1.084A1.96,1.96,0,0,0,71.2-.518V-.85A3.09,3.09,0,0,1,68.809.2a3.819,3.819,0,0,1-3.125-1.479,6.13,6.13,0,0,1-1.191-3.96Zm3.3.205A3.759,3.759,0,0,0,68.281-3.1a1.541,1.541,0,0,0,1.367.757A1.748,1.748,0,0,0,71.2-3.057V-7.5a1.7,1.7,0,0,0-1.533-.723,1.551,1.551,0,0,0-1.377.786A4.287,4.287,0,0,0,67.793-5.156ZM79.854,0h-3.3V-10.566h3.3Zm-3.5-13.3a1.482,1.482,0,0,1,.508-1.159,1.909,1.909,0,0,1,1.318-.452,1.909,1.909,0,0,1,1.318.452A1.482,1.482,0,0,1,80.01-13.3a1.482,1.482,0,0,1-.508,1.159,1.909,1.909,0,0,1-1.318.452,1.909,1.909,0,0,1-1.318-.452A1.482,1.482,0,0,1,76.357-13.3ZM87.832,0a3.716,3.716,0,0,1-.312-.947A3.06,3.06,0,0,1,84.98.2a3.749,3.749,0,0,1-2.539-.9A2.875,2.875,0,0,1,81.4-2.979a2.955,2.955,0,0,1,1.27-2.6,6.468,6.468,0,0,1,3.691-.879h1.016v-.559q0-1.462-1.26-1.462a1.03,1.03,0,0,0-1.172,1.158H81.65a2.95,2.95,0,0,1,1.3-2.487,5.479,5.479,0,0,1,3.325-.956,4.8,4.8,0,0,1,3.193.986,3.429,3.429,0,0,1,1.2,2.705v4.678a4.79,4.79,0,0,0,.449,2.227V0ZM85.771-2.148a1.836,1.836,0,0,0,1.021-.264,1.653,1.653,0,0,0,.581-.6V-4.7h-.957Q84.7-4.7,84.7-3.154a.942.942,0,0,0,.3.728A1.1,1.1,0,0,0,85.771-2.148Z" transform="translate(754 1703)" fill="#fff"/>
    <rect id="Rectángulo_7107" data-name="Rectángulo 7107" width="171" height="78" rx="10" transform="translate(588 1834)" fill="#0ac4bf"/>
    <path id="Trazado_118592" data-name="Trazado 118592" d="M5.576-14.219,8.75-4.326l3.164-9.893h4.512V0H12.988V-3.32l.332-6.8L9.883,0H7.617L4.17-10.127,4.5-3.32V0H1.074V-14.219ZM24.4,0a3.716,3.716,0,0,1-.312-.947A3.06,3.06,0,0,1,21.553.2a3.749,3.749,0,0,1-2.539-.9,2.875,2.875,0,0,1-1.045-2.271,2.955,2.955,0,0,1,1.27-2.6,6.468,6.468,0,0,1,3.691-.879h1.016v-.559q0-1.462-1.26-1.462a1.03,1.03,0,0,0-1.172,1.158H18.223a2.95,2.95,0,0,1,1.3-2.487,5.479,5.479,0,0,1,3.325-.956,4.8,4.8,0,0,1,3.193.986,3.429,3.429,0,0,1,1.2,2.705v4.678A4.79,4.79,0,0,0,27.7-.166V0ZM22.344-2.148a1.836,1.836,0,0,0,1.021-.264,1.653,1.653,0,0,0,.581-.6V-4.7h-.957q-1.719,0-1.719,1.543a.942.942,0,0,0,.3.728A1.1,1.1,0,0,0,22.344-2.148ZM35.459-7.588l-1.084-.078a1.947,1.947,0,0,0-1.992.977V0H29.092V-10.566h3.086l.107,1.357A2.548,2.548,0,0,1,34.6-10.762a3.209,3.209,0,0,1,.918.117Zm5.43,3.652-.928.928V0H36.67V-15.01h3.291v7.969l.332-.439,2.48-3.086h3.945l-3.7,4.346L46.963,0h-3.77ZM52.5.2a5.432,5.432,0,0,1-3.936-1.45,5.008,5.008,0,0,1-1.5-3.774V-5.3a6.489,6.489,0,0,1,.6-2.861,4.395,4.395,0,0,1,1.753-1.919,5.292,5.292,0,0,1,2.734-.679A4.574,4.574,0,0,1,55.664-9.38a5.43,5.43,0,0,1,1.289,3.853v1.279H50.41a2.372,2.372,0,0,0,.771,1.4,2.3,2.3,0,0,0,1.543.508,2.958,2.958,0,0,0,2.441-1.094l1.5,1.777A4.2,4.2,0,0,1,54.927-.308,5.891,5.891,0,0,1,52.5.2Zm-.371-8.418q-1.445,0-1.719,1.914h3.32v-.254a1.63,1.63,0,0,0-.4-1.226A1.593,1.593,0,0,0,52.129-8.223Zm9.98-4.971v2.627h1.738v2.285H62.109v4.834a1.234,1.234,0,0,0,.215.83,1.152,1.152,0,0,0,.85.234,4.828,4.828,0,0,0,.82-.059V-.088A6.074,6.074,0,0,1,62.139.2a3.448,3.448,0,0,1-2.51-.8,3.282,3.282,0,0,1-.811-2.432V-8.281H57.471v-2.285h1.348v-2.627ZM68.613,0h-3.3V-10.566h3.3Zm-3.5-13.3a1.482,1.482,0,0,1,.508-1.159,1.909,1.909,0,0,1,1.318-.452,1.909,1.909,0,0,1,1.318.452A1.482,1.482,0,0,1,68.77-13.3a1.482,1.482,0,0,1-.508,1.159,1.909,1.909,0,0,1-1.318.452,1.909,1.909,0,0,1-1.318-.452A1.482,1.482,0,0,1,65.117-13.3Zm8.545,2.734.107,1.24a3.583,3.583,0,0,1,3.018-1.436,3.015,3.015,0,0,1,2.466.986A4.7,4.7,0,0,1,80.1-6.807V0H76.8V-6.67a1.783,1.783,0,0,0-.322-1.177A1.491,1.491,0,0,0,75.3-8.223a1.569,1.569,0,0,0-1.436.762V0H70.576V-10.566Zm7.871,5.205a7.134,7.134,0,0,1,.527-2.832,4.245,4.245,0,0,1,1.514-1.9,3.99,3.99,0,0,1,2.295-.669,3.173,3.173,0,0,1,2.578,1.113l.117-.918h2.988V-.4A4.455,4.455,0,0,1,90.9,2.026a4.167,4.167,0,0,1-1.88,1.582,6.91,6.91,0,0,1-2.852.552,5.961,5.961,0,0,1-2.251-.439,4.063,4.063,0,0,1-1.665-1.143L83.633.645a3.018,3.018,0,0,0,2.422,1.084A1.96,1.96,0,0,0,88.242-.518V-.85A3.09,3.09,0,0,1,85.85.2a3.819,3.819,0,0,1-3.125-1.479,6.13,6.13,0,0,1-1.191-3.96Zm3.3.205A3.759,3.759,0,0,0,85.322-3.1a1.541,1.541,0,0,0,1.367.757,1.748,1.748,0,0,0,1.553-.713V-7.5a1.7,1.7,0,0,0-1.533-.723,1.551,1.551,0,0,0-1.377.786A4.287,4.287,0,0,0,84.834-5.156Z" transform="translate(627 1880)" fill="#fff"/>
    <rect id="Rectángulo_7108" data-name="Rectángulo 7108" width="171" height="78" rx="10" transform="translate(852 1835)" fill="#0ac4bf"/>
    <path id="Trazado_118593" data-name="Trazado 118593" d="M12.227-14.219v9.307a5.349,5.349,0,0,1-.674,2.739A4.365,4.365,0,0,1,9.619-.41,6.812,6.812,0,0,1,6.641.2,5.885,5.885,0,0,1,2.549-1.152,4.806,4.806,0,0,1,1.025-4.844v-9.375H4.473v9.443q.059,2.334,2.168,2.334a2.1,2.1,0,0,0,1.611-.586,2.739,2.739,0,0,0,.547-1.9v-9.287Zm7.52,11.25a.76.76,0,0,0-.439-.674,6.685,6.685,0,0,0-1.67-.527,7.615,7.615,0,0,1-2.031-.718,3.4,3.4,0,0,1-1.221-1.079,2.577,2.577,0,0,1-.42-1.455,2.92,2.92,0,0,1,1.2-2.4,4.948,4.948,0,0,1,3.145-.942,5.482,5.482,0,0,1,3.359.947,2.962,2.962,0,0,1,1.27,2.49h-3.3q0-1.27-1.338-1.27a1.326,1.326,0,0,0-.869.288.892.892,0,0,0-.352.718.819.819,0,0,0,.43.713,4.06,4.06,0,0,0,1.372.449,11.857,11.857,0,0,1,1.655.42A3.007,3.007,0,0,1,22.92-3.066,2.767,2.767,0,0,1,21.636-.713,5.631,5.631,0,0,1,18.311.2a5.747,5.747,0,0,1-2.422-.488,4.05,4.05,0,0,1-1.66-1.328,3.007,3.007,0,0,1-.6-1.768h3.076A1.272,1.272,0,0,0,17.2-2.319a2.009,2.009,0,0,0,1.2.337,1.58,1.58,0,0,0,1.011-.273A.875.875,0,0,0,19.746-2.969ZM30.752-1.143A3.393,3.393,0,0,1,27.93.2,3.328,3.328,0,0,1,25.3-.815,4.251,4.251,0,0,1,24.4-3.721v-6.846H27.7V-3.7a1.183,1.183,0,0,0,1.318,1.357,1.72,1.72,0,0,0,1.611-.811v-7.412h3.311V0H30.85ZM41.689,0a3.716,3.716,0,0,1-.312-.947A3.06,3.06,0,0,1,38.838.2a3.749,3.749,0,0,1-2.539-.9,2.875,2.875,0,0,1-1.045-2.271,2.955,2.955,0,0,1,1.27-2.6,6.468,6.468,0,0,1,3.691-.879H41.23v-.559q0-1.462-1.26-1.462A1.03,1.03,0,0,0,38.8-7.319H35.508a2.95,2.95,0,0,1,1.3-2.487,5.479,5.479,0,0,1,3.325-.956,4.8,4.8,0,0,1,3.193.986,3.429,3.429,0,0,1,1.2,2.705v4.678A4.79,4.79,0,0,0,44.98-.166V0ZM39.629-2.148a1.836,1.836,0,0,0,1.021-.264,1.653,1.653,0,0,0,.581-.6V-4.7h-.957q-1.719,0-1.719,1.543a.942.942,0,0,0,.3.728A1.1,1.1,0,0,0,39.629-2.148ZM52.744-7.588,51.66-7.666a1.947,1.947,0,0,0-1.992.977V0H46.377V-10.566h3.086l.107,1.357a2.548,2.548,0,0,1,2.314-1.553,3.209,3.209,0,0,1,.918.117ZM57.4,0H54.1V-10.566h3.3Zm-3.5-13.3a1.482,1.482,0,0,1,.508-1.159,1.909,1.909,0,0,1,1.318-.452,1.909,1.909,0,0,1,1.318.452,1.482,1.482,0,0,1,.508,1.159,1.482,1.482,0,0,1-.508,1.159,1.909,1.909,0,0,1-1.318.452,1.909,1.909,0,0,1-1.318-.452A1.482,1.482,0,0,1,53.906-13.3Zm5.107,7.92A6.236,6.236,0,0,1,59.629-8.2,4.4,4.4,0,0,1,61.4-10.1a5.323,5.323,0,0,1,2.705-.664,4.858,4.858,0,0,1,3.74,1.47,5.64,5.64,0,0,1,1.367,4v.117a5.472,5.472,0,0,1-1.372,3.921A4.871,4.871,0,0,1,64.121.2,4.927,4.927,0,0,1,60.5-1.157a5.29,5.29,0,0,1-1.475-3.667Zm3.291.205a3.932,3.932,0,0,0,.459,2.148,1.529,1.529,0,0,0,1.357.684q1.758,0,1.8-2.705v-.332q0-2.842-1.816-2.842-1.65,0-1.787,2.451Z" transform="translate(903 1881)" fill="#fff"/>
    <path id="Trazado_114664" data-name="Trazado 114664" d="M-8546-10119v79.879" transform="translate(777.247 15017.332) rotate(40)" fill="none" stroke="#000" stroke-width="2"/>
    <path id="Trazado_114665" data-name="Trazado 114665" d="M0,79.878V0" transform="translate(928.672 1833.656) rotate(140)" fill="none" stroke="#000" stroke-width="2"/>
  </g>
</svg>
