<svg xmlns="http://www.w3.org/2000/svg" width="318.754" height="292.964" viewBox="0 0 318.754 292.964">
  <g id="Grupo_68108" data-name="Grupo 68108" transform="translate(-71.319 -64.193)">
    <path id="Trazado_117494" data-name="Trazado 117494" d="M328.589,65.484H117.138a44.813,44.813,0,0,0-44.682,44.682v7.445a44.785,44.785,0,0,0,44.682,44.649h57.9" transform="translate(0 0.228)" fill="none" stroke="#212193" stroke-linecap="round" stroke-linejoin="round" stroke-width="2.274"/>
    <path id="Trazado_117495" data-name="Trazado 117495" d="M175.306,104.51l162.711-.074A44.813,44.813,0,0,1,382.7,149.118v7.448a44.808,44.808,0,0,1-44.682,44.677H154.85l-37.653-.01a44.813,44.813,0,0,0-44.682,44.682v7.448A44.813,44.813,0,0,0,117.2,298.043H388.848" transform="translate(0.087 57.978)" fill="none" stroke="#212193" stroke-linecap="round" stroke-linejoin="round" stroke-width="2.274"/>
    <path id="Trazado_117496" data-name="Trazado 117496" d="M113.119,72.15a32.927,32.927,0,1,0,0,65.853H304.1V72.15Z" transform="translate(11.469 10.111)" fill="#0ac4bf"/>
    <path id="Trazado_117497" data-name="Trazado 117497" d="M111.979,72.15a32.927,32.927,0,0,0,0,65.853" transform="translate(9.784 10.111)" fill="none" stroke="#212193" stroke-linecap="round" stroke-linejoin="round" stroke-width="2.274"/>
    <path id="Trazado_117498" data-name="Trazado 117498" d="M113.119,150.211a32.927,32.927,0,1,0,0,65.853H333.259V150.211Z" transform="translate(11.469 125.843)" fill="#339ce9"/>
    <path id="Trazado_117499" data-name="Trazado 117499" d="M113.119,150.211a32.927,32.927,0,1,0,0,65.853" transform="translate(11.469 125.843)" fill="none" stroke="#212193" stroke-linecap="round" stroke-linejoin="round" stroke-width="2.274"/>
    <path id="Trazado_117500" data-name="Trazado 117500" d="M297.051,176.654a32.927,32.927,0,0,0,0-65.853H95.731v65.853Z" transform="translate(34.507 67.414)" fill="#f2d6e3"/>
    <path id="Trazado_117501" data-name="Trazado 117501" d="M176.824,176.654a32.927,32.927,0,0,0,0-65.853" transform="translate(154.734 67.414)" fill="none" stroke="#212193" stroke-linecap="round" stroke-linejoin="round" stroke-width="2.274"/>
    <line id="Línea_176" data-name="Línea 176" x2="204.611" transform="translate(118.244 97.314)" fill="none" stroke="#212193" stroke-linecap="round" stroke-linejoin="round" stroke-width="2.274"/>
    <line id="Línea_177" data-name="Línea 177" x2="204.611" transform="translate(118.244 132.593)" fill="none" stroke="#212193" stroke-linecap="round" stroke-linejoin="round" stroke-width="2.274"/>
    <line id="Línea_178" data-name="Línea 178" x2="213.083" transform="translate(109.772 194.682)" fill="none" stroke="#212193" stroke-linecap="round" stroke-linejoin="round" stroke-width="2.274"/>
    <line id="Línea_179" data-name="Línea 179" x2="221.555" transform="translate(106.949 114.247)" fill="none" stroke="#212193" stroke-linecap="round" stroke-linejoin="round" stroke-width="2.274"/>
    <line id="Línea_180" data-name="Línea 180" x2="221.555" transform="translate(129.54 292.042)" fill="none" stroke="#212193" stroke-linecap="round" stroke-linejoin="round" stroke-width="2.274"/>
    <line id="Línea_181" data-name="Línea 181" x2="221.555" transform="translate(129.54 328.731)" fill="none" stroke="#212193" stroke-linecap="round" stroke-linejoin="round" stroke-width="2.274"/>
    <line id="Línea_182" data-name="Línea 182" x2="238.498" transform="translate(121.068 310.857)" fill="none" stroke="#212193" stroke-linecap="round" stroke-linejoin="round" stroke-width="2.274"/>
    <line id="Línea_183" data-name="Línea 183" x2="221.555" transform="translate(112.596 229.958)" fill="none" stroke="#212193" stroke-linecap="round" stroke-linejoin="round" stroke-width="2.274"/>
    <line id="Línea_184" data-name="Línea 184" x2="224.379" transform="translate(118.244 211.142)" fill="none" stroke="#212193" stroke-linecap="round" stroke-linejoin="round" stroke-width="2.274"/>
    <line id="Línea_185" data-name="Línea 185" x1="13.17" transform="translate(337.202 65.33)" fill="none" stroke="#212193" stroke-linecap="round" stroke-linejoin="round" stroke-width="2.274"/>
    <line id="Línea_186" data-name="Línea 186" x1="7.523" transform="translate(365.427 65.33)" fill="none" stroke="#212193" stroke-linecap="round" stroke-linejoin="round" stroke-width="2.274"/>
  </g>
</svg>
