<svg xmlns="http://www.w3.org/2000/svg" width="435" height="410" viewBox="0 0 435 410">
  <g id="Grupo_68171" data-name="Grupo 68171" transform="translate(-588 -1503)">
    <rect id="Rectángulo_7105" data-name="Rectángulo 7105" width="275" height="78" rx="10" transform="translate(663 1503)" fill="#339ce9"/>
    <path id="Trazado_118590" data-name="Trazado 118590" d="M4.5-4.824V0H1.074V-14.219H6.748a6.608,6.608,0,0,1,2.886.6,4.526,4.526,0,0,1,1.943,1.709,4.667,4.667,0,0,1,.688,2.515,4.114,4.114,0,0,1-1.489,3.325A6.179,6.179,0,0,1,6.689-4.824Zm0-2.646H6.748a2.118,2.118,0,0,0,1.519-.5,1.85,1.85,0,0,0,.522-1.406,2.287,2.287,0,0,0-.537-1.592,1.9,1.9,0,0,0-1.465-.605H4.5Zm15.83-.117-1.084-.078a1.947,1.947,0,0,0-1.992.977V0H13.965V-10.566h3.086l.107,1.357a2.548,2.548,0,0,1,2.314-1.553,3.209,3.209,0,0,1,.918.117Zm.42,2.207A6.236,6.236,0,0,1,21.367-8.2a4.4,4.4,0,0,1,1.768-1.9,5.323,5.323,0,0,1,2.705-.664,4.858,4.858,0,0,1,3.74,1.47,5.64,5.64,0,0,1,1.367,4v.117a5.472,5.472,0,0,1-1.372,3.921A4.871,4.871,0,0,1,25.859.2a4.927,4.927,0,0,1-3.623-1.353,5.29,5.29,0,0,1-1.475-3.667Zm3.291.205A3.932,3.932,0,0,0,24.5-3.027a1.529,1.529,0,0,0,1.357.684q1.758,0,1.8-2.705v-.332q0-2.842-1.816-2.842-1.65,0-1.787,2.451Zm7.939-.186a6.455,6.455,0,0,1,1.084-3.955,3.568,3.568,0,0,1,3.027-1.445,3.035,3.035,0,0,1,2.383,1.113V-15h3.3V0H38.818l-.166-1.133A3.116,3.116,0,0,1,36.074.2,3.562,3.562,0,0,1,33.086-1.25,6.659,6.659,0,0,1,31.982-5.361Zm3.291.205q0,2.813,1.641,2.813a1.62,1.62,0,0,0,1.563-.918V-7.285a1.576,1.576,0,0,0-1.543-.937q-1.523,0-1.65,2.461ZM49.941-1.143A3.393,3.393,0,0,1,47.119.2,3.328,3.328,0,0,1,44.487-.815a4.251,4.251,0,0,1-.894-2.905v-6.846h3.291V-3.7A1.183,1.183,0,0,0,48.2-2.344a1.72,1.72,0,0,0,1.611-.811v-7.412h3.311V0H50.039Zm9.453-1.2a1.464,1.464,0,0,0,1.074-.376,1.379,1.379,0,0,0,.371-1.05h3.086A3.653,3.653,0,0,1,62.681-.918,4.631,4.631,0,0,1,59.473.2,4.689,4.689,0,0,1,55.84-1.25a5.7,5.7,0,0,1-1.328-4v-.137A6.436,6.436,0,0,1,55.1-8.218a4.3,4.3,0,0,1,1.7-1.885,5.081,5.081,0,0,1,2.637-.659,4.573,4.573,0,0,1,3.271,1.143,4.053,4.053,0,0,1,1.211,3.1H60.84a1.807,1.807,0,0,0-.4-1.26,1.382,1.382,0,0,0-1.074-.439q-1.279,0-1.494,1.631A11.507,11.507,0,0,0,57.8-5.166a4.52,4.52,0,0,0,.381,2.207A1.319,1.319,0,0,0,59.395-2.344Zm9.756-10.85v2.627h1.738v2.285H69.15v4.834a1.234,1.234,0,0,0,.215.83,1.152,1.152,0,0,0,.85.234,4.828,4.828,0,0,0,.82-.059V-.088A6.074,6.074,0,0,1,69.18.2a3.448,3.448,0,0,1-2.51-.8,3.282,3.282,0,0,1-.811-2.432V-8.281H64.512v-2.285h1.348v-2.627Zm2.324,7.813A6.236,6.236,0,0,1,72.09-8.2a4.4,4.4,0,0,1,1.768-1.9,5.323,5.323,0,0,1,2.705-.664,4.858,4.858,0,0,1,3.74,1.47,5.64,5.64,0,0,1,1.367,4v.117A5.472,5.472,0,0,1,80.3-1.255,4.871,4.871,0,0,1,76.582.2a4.927,4.927,0,0,1-3.623-1.353,5.29,5.29,0,0,1-1.475-3.667Zm3.291.205a3.932,3.932,0,0,0,.459,2.148,1.529,1.529,0,0,0,1.357.684q1.758,0,1.8-2.705v-.332q0-2.842-1.816-2.842-1.65,0-1.787,2.451Z" transform="translate(759 1549)" fill="#fff"/>
    <path id="Trazado_114663" data-name="Trazado 114663" d="M-8546-10119v79.879" transform="translate(9346 11700)" fill="none" stroke="#000" stroke-width="2"/>
    <rect id="Rectángulo_7106" data-name="Rectángulo 7106" width="274" height="150" rx="10" transform="translate(663 1621)" fill="#bf3976"/>
    <path id="Trazado_118591" data-name="Trazado 118591" d="M9.893-6.035H4.5v3.4h6.367V0H1.074V-14.219h9.814v2.646H4.5v3H9.893Zm7.754,3.066a.76.76,0,0,0-.439-.674,6.685,6.685,0,0,0-1.67-.527,7.615,7.615,0,0,1-2.031-.718,3.4,3.4,0,0,1-1.221-1.079,2.577,2.577,0,0,1-.42-1.455,2.92,2.92,0,0,1,1.2-2.4,4.948,4.948,0,0,1,3.145-.942,5.482,5.482,0,0,1,3.359.947,2.962,2.962,0,0,1,1.27,2.49h-3.3q0-1.27-1.338-1.27a1.326,1.326,0,0,0-.869.288.892.892,0,0,0-.352.718.819.819,0,0,0,.43.713,4.06,4.06,0,0,0,1.372.449,11.857,11.857,0,0,1,1.655.42A3.007,3.007,0,0,1,20.82-3.066,2.767,2.767,0,0,1,19.536-.713,5.631,5.631,0,0,1,16.211.2a5.747,5.747,0,0,1-2.422-.488,4.05,4.05,0,0,1-1.66-1.328,3.007,3.007,0,0,1-.6-1.768h3.076A1.272,1.272,0,0,0,15.1-2.319a2.009,2.009,0,0,0,1.2.337,1.58,1.58,0,0,0,1.011-.273A.875.875,0,0,0,17.646-2.969Zm8.545-10.225v2.627H27.93v2.285H26.191v4.834a1.234,1.234,0,0,0,.215.83,1.152,1.152,0,0,0,.85.234,4.828,4.828,0,0,0,.82-.059V-.088A6.074,6.074,0,0,1,26.221.2a3.448,3.448,0,0,1-2.51-.8A3.282,3.282,0,0,1,22.9-3.037V-8.281H21.553v-2.285H22.9v-2.627Zm9.424,5.605-1.084-.078a1.947,1.947,0,0,0-1.992.977V0H29.248V-10.566h3.086l.107,1.357a2.548,2.548,0,0,1,2.314-1.553,3.209,3.209,0,0,1,.918.117ZM42.461,0a3.716,3.716,0,0,1-.312-.947A3.06,3.06,0,0,1,39.609.2a3.749,3.749,0,0,1-2.539-.9,2.875,2.875,0,0,1-1.045-2.271,2.955,2.955,0,0,1,1.27-2.6,6.468,6.468,0,0,1,3.691-.879H42v-.559q0-1.462-1.26-1.462A1.03,1.03,0,0,0,39.57-7.319H36.279a2.95,2.95,0,0,1,1.3-2.487,5.479,5.479,0,0,1,3.325-.956,4.8,4.8,0,0,1,3.193.986A3.429,3.429,0,0,1,45.3-7.07v4.678a4.79,4.79,0,0,0,.449,2.227V0ZM40.4-2.148a1.836,1.836,0,0,0,1.021-.264,1.653,1.653,0,0,0,.581-.6V-4.7h-.957q-1.719,0-1.719,1.543a.942.942,0,0,0,.3.728A1.1,1.1,0,0,0,40.4-2.148ZM50.957-13.193v2.627H52.7v2.285H50.957v4.834a1.234,1.234,0,0,0,.215.83,1.152,1.152,0,0,0,.85.234,4.828,4.828,0,0,0,.82-.059V-.088A6.074,6.074,0,0,1,50.986.2a3.448,3.448,0,0,1-2.51-.8,3.282,3.282,0,0,1-.811-2.432V-8.281H46.318v-2.285h1.348v-2.627ZM59.1.2a5.432,5.432,0,0,1-3.936-1.45,5.008,5.008,0,0,1-1.5-3.774V-5.3a6.489,6.489,0,0,1,.6-2.861,4.395,4.395,0,0,1,1.753-1.919,5.292,5.292,0,0,1,2.734-.679A4.574,4.574,0,0,1,62.266-9.38a5.43,5.43,0,0,1,1.289,3.853v1.279H57.012a2.372,2.372,0,0,0,.771,1.4,2.3,2.3,0,0,0,1.543.508,2.958,2.958,0,0,0,2.441-1.094l1.5,1.777A4.2,4.2,0,0,1,61.528-.308,5.891,5.891,0,0,1,59.1.2ZM58.73-8.223q-1.445,0-1.719,1.914h3.32v-.254a1.63,1.63,0,0,0-.4-1.226A1.593,1.593,0,0,0,58.73-8.223Zm5.762,2.861a7.134,7.134,0,0,1,.527-2.832,4.245,4.245,0,0,1,1.514-1.9,3.99,3.99,0,0,1,2.295-.669,3.173,3.173,0,0,1,2.578,1.113l.117-.918h2.988V-.4a4.455,4.455,0,0,1-.649,2.427,4.167,4.167,0,0,1-1.88,1.582,6.91,6.91,0,0,1-2.852.552,5.961,5.961,0,0,1-2.251-.439,4.063,4.063,0,0,1-1.665-1.143L66.592.645a3.018,3.018,0,0,0,2.422,1.084A1.96,1.96,0,0,0,71.2-.518V-.85A3.09,3.09,0,0,1,68.809.2a3.819,3.819,0,0,1-3.125-1.479,6.13,6.13,0,0,1-1.191-3.96Zm3.3.205A3.759,3.759,0,0,0,68.281-3.1a1.541,1.541,0,0,0,1.367.757A1.748,1.748,0,0,0,71.2-3.057V-7.5a1.7,1.7,0,0,0-1.533-.723,1.551,1.551,0,0,0-1.377.786A4.287,4.287,0,0,0,67.793-5.156ZM79.854,0h-3.3V-10.566h3.3Zm-3.5-13.3a1.482,1.482,0,0,1,.508-1.159,1.909,1.909,0,0,1,1.318-.452,1.909,1.909,0,0,1,1.318.452A1.482,1.482,0,0,1,80.01-13.3a1.482,1.482,0,0,1-.508,1.159,1.909,1.909,0,0,1-1.318.452,1.909,1.909,0,0,1-1.318-.452A1.482,1.482,0,0,1,76.357-13.3ZM87.832,0a3.716,3.716,0,0,1-.312-.947A3.06,3.06,0,0,1,84.98.2a3.749,3.749,0,0,1-2.539-.9A2.875,2.875,0,0,1,81.4-2.979a2.955,2.955,0,0,1,1.27-2.6,6.468,6.468,0,0,1,3.691-.879h1.016v-.559q0-1.462-1.26-1.462a1.03,1.03,0,0,0-1.172,1.158H81.65a2.95,2.95,0,0,1,1.3-2.487,5.479,5.479,0,0,1,3.325-.956,4.8,4.8,0,0,1,3.193.986,3.429,3.429,0,0,1,1.2,2.705v4.678a4.79,4.79,0,0,0,.449,2.227V0ZM85.771-2.148a1.836,1.836,0,0,0,1.021-.264,1.653,1.653,0,0,0,.581-.6V-4.7h-.957Q84.7-4.7,84.7-3.154a.942.942,0,0,0,.3.728A1.1,1.1,0,0,0,85.771-2.148Z" transform="translate(754 1703)" fill="#fff"/>
    <rect id="Rectángulo_7107" data-name="Rectángulo 7107" width="171" height="78" rx="10" transform="translate(588 1834)" fill="#0ac4bf"/>
    <path id="Trazado_118592" data-name="Trazado 118592" d="M6.816-14.219,8.174-4.355l4.766-9.863h4.453L14.932,0H11.572l.605-3.486,1.445-6.426L8.643,0H6.426L4.814-10.283l-.9,7.129L3.359,0H.02L2.48-14.219ZM22.93,0a2.865,2.865,0,0,1-.137-.957A3.259,3.259,0,0,1,20.205.2,3.184,3.184,0,0,1,17.92-.723,2.759,2.759,0,0,1,17.07-2.9a3.1,3.1,0,0,1,1.436-2.642,6.768,6.768,0,0,1,3.789-.923l1.074.02.117-.6.039-.518a.839.839,0,0,0-.889-.918,1.235,1.235,0,0,0-1.3,1.162l-3.223.01a3.06,3.06,0,0,1,.693-1.851,4.109,4.109,0,0,1,1.753-1.211,6.125,6.125,0,0,1,2.358-.4,4.723,4.723,0,0,1,2.1.5A3.133,3.133,0,0,1,26.377-8.94a3.368,3.368,0,0,1,.342,1.948l-.791,4.971-.049.605a2.669,2.669,0,0,0,.186,1.23L26.055,0ZM21.094-2.129A2.072,2.072,0,0,0,22.822-3l.322-1.7-.83-.01a2.188,2.188,0,0,0-1.328.454,1.722,1.722,0,0,0-.654,1.187.865.865,0,0,0,.151.659A.773.773,0,0,0,21.094-2.129Zm13.9-5.459a9.192,9.192,0,0,0-1-.1,2.481,2.481,0,0,0-2.207,1L30.6,0H27.383l1.836-10.566,3-.01-.244,1.387a2.933,2.933,0,0,1,2.441-1.6,4.6,4.6,0,0,1,1,.137ZM39.717-3.9,38.545-2.881,38.047,0H34.834l2.607-15.01h3.213L39.17-7l.391-.469,2.92-3.1h4.072L42.061-6.074,44.785,0H41.26ZM50.771.2a4.912,4.912,0,0,1-2.524-.669A4.215,4.215,0,0,1,46.572-2.31,4.933,4.933,0,0,1,46.123-4.9l.029-.273A6.477,6.477,0,0,1,47.964-9.3a5.011,5.011,0,0,1,3.794-1.46,4.086,4.086,0,0,1,2.324.689A3.853,3.853,0,0,1,55.5-8.224a5.662,5.662,0,0,1,.293,2.646l-.186,1.34H49.316a2.06,2.06,0,0,0,.469,1.348,1.722,1.722,0,0,0,1.309.547A3.325,3.325,0,0,0,53.6-3.418l1.348,1.782A3.976,3.976,0,0,1,53.286-.306a5.848,5.848,0,0,1-2.339.5Zm.781-8.418a1.653,1.653,0,0,0-1.187.427,3.588,3.588,0,0,0-.874,1.5h3.213l.059-.282a2.143,2.143,0,0,0,.02-.641A1.131,1.131,0,0,0,51.553-8.223Zm10.654-4.971-.459,2.627h1.689l-.4,2.285H61.348l-.82,4.854a1.294,1.294,0,0,0,.063.752q.132.254.659.273a7.637,7.637,0,0,0,.84-.049L61.855-.068a5.192,5.192,0,0,1-1.729.244A2.847,2.847,0,0,1,57.891-.7a3,3,0,0,1-.605-2.334l.859-5.244H56.836l.391-2.285h1.309l.459-2.627ZM66.328,0H63.105l1.836-10.566h3.223Zm-1.1-13.232a1.49,1.49,0,0,1,.5-1.191,1.806,1.806,0,0,1,1.265-.479,1.864,1.864,0,0,1,1.255.43,1.464,1.464,0,0,1,.522,1.123,1.493,1.493,0,0,1-.5,1.2A1.811,1.811,0,0,1,67-11.68a1.887,1.887,0,0,1-1.245-.425A1.447,1.447,0,0,1,65.225-13.232Zm7.91,2.656-.225,1.27a3.756,3.756,0,0,1,3.057-1.465,2.523,2.523,0,0,1,2.183,1.089,4.557,4.557,0,0,1,.522,3.032L77.559,0H74.336l1.123-6.678a3.454,3.454,0,0,0,.02-.626q-.068-.929-1.094-.929a2.008,2.008,0,0,0-1.553.753L71.514,0H68.3l1.836-10.566ZM79.951-5.3a8.029,8.029,0,0,1,.874-2.881,5.072,5.072,0,0,1,1.724-1.948,4.15,4.15,0,0,1,2.344-.64,2.885,2.885,0,0,1,2.4,1.143l.342-.947,2.969.01L88.877-.41a4.964,4.964,0,0,1-1.885,3.389A6,6,0,0,1,83.027,4.16a5.661,5.661,0,0,1-2.041-.42A4.4,4.4,0,0,1,79.3,2.529L80.82.635a2.766,2.766,0,0,0,2.207,1.1A2.582,2.582,0,0,0,85.742-.537l.078-.322A3.3,3.3,0,0,1,83.408.2a3.258,3.258,0,0,1-1.787-.513,3.371,3.371,0,0,1-1.211-1.45,5.64,5.64,0,0,1-.5-2.109A9.17,9.17,0,0,1,79.951-5.3Zm3.174,1.045a2.562,2.562,0,0,0,.322,1.4,1.093,1.093,0,0,0,.938.518,2.147,2.147,0,0,0,1.65-.7l.83-4.482a1.424,1.424,0,0,0-1.309-.7,1.87,1.87,0,0,0-1.572.8,4.291,4.291,0,0,0-.8,2.144Q83.125-4.678,83.125-4.258Z" transform="translate(627 1880)" fill="#fff"/>
    <rect id="Rectángulo_7108" data-name="Rectángulo 7108" width="171" height="78" rx="10" transform="translate(852 1835)" fill="#0ac4bf"/>
    <path id="Trazado_118593" data-name="Trazado 118593" d="M12.227-14.219v9.307a5.349,5.349,0,0,1-.674,2.739A4.365,4.365,0,0,1,9.619-.41,6.812,6.812,0,0,1,6.641.2,5.885,5.885,0,0,1,2.549-1.152,4.806,4.806,0,0,1,1.025-4.844v-9.375H4.473v9.443q.059,2.334,2.168,2.334a2.1,2.1,0,0,0,1.611-.586,2.739,2.739,0,0,0,.547-1.9v-9.287Zm7.52,11.25a.76.76,0,0,0-.439-.674,6.685,6.685,0,0,0-1.67-.527,7.615,7.615,0,0,1-2.031-.718,3.4,3.4,0,0,1-1.221-1.079,2.577,2.577,0,0,1-.42-1.455,2.92,2.92,0,0,1,1.2-2.4,4.948,4.948,0,0,1,3.145-.942,5.482,5.482,0,0,1,3.359.947,2.962,2.962,0,0,1,1.27,2.49h-3.3q0-1.27-1.338-1.27a1.326,1.326,0,0,0-.869.288.892.892,0,0,0-.352.718.819.819,0,0,0,.43.713,4.06,4.06,0,0,0,1.372.449,11.857,11.857,0,0,1,1.655.42A3.007,3.007,0,0,1,22.92-3.066,2.767,2.767,0,0,1,21.636-.713,5.631,5.631,0,0,1,18.311.2a5.747,5.747,0,0,1-2.422-.488,4.05,4.05,0,0,1-1.66-1.328,3.007,3.007,0,0,1-.6-1.768h3.076A1.272,1.272,0,0,0,17.2-2.319a2.009,2.009,0,0,0,1.2.337,1.58,1.58,0,0,0,1.011-.273A.875.875,0,0,0,19.746-2.969ZM30.752-1.143A3.393,3.393,0,0,1,27.93.2,3.328,3.328,0,0,1,25.3-.815,4.251,4.251,0,0,1,24.4-3.721v-6.846H27.7V-3.7a1.183,1.183,0,0,0,1.318,1.357,1.72,1.72,0,0,0,1.611-.811v-7.412h3.311V0H30.85ZM41.689,0a3.716,3.716,0,0,1-.312-.947A3.06,3.06,0,0,1,38.838.2a3.749,3.749,0,0,1-2.539-.9,2.875,2.875,0,0,1-1.045-2.271,2.955,2.955,0,0,1,1.27-2.6,6.468,6.468,0,0,1,3.691-.879H41.23v-.559q0-1.462-1.26-1.462A1.03,1.03,0,0,0,38.8-7.319H35.508a2.95,2.95,0,0,1,1.3-2.487,5.479,5.479,0,0,1,3.325-.956,4.8,4.8,0,0,1,3.193.986,3.429,3.429,0,0,1,1.2,2.705v4.678A4.79,4.79,0,0,0,44.98-.166V0ZM39.629-2.148a1.836,1.836,0,0,0,1.021-.264,1.653,1.653,0,0,0,.581-.6V-4.7h-.957q-1.719,0-1.719,1.543a.942.942,0,0,0,.3.728A1.1,1.1,0,0,0,39.629-2.148ZM52.744-7.588,51.66-7.666a1.947,1.947,0,0,0-1.992.977V0H46.377V-10.566h3.086l.107,1.357a2.548,2.548,0,0,1,2.314-1.553,3.209,3.209,0,0,1,.918.117ZM57.4,0H54.1V-10.566h3.3Zm-3.5-13.3a1.482,1.482,0,0,1,.508-1.159,1.909,1.909,0,0,1,1.318-.452,1.909,1.909,0,0,1,1.318.452,1.482,1.482,0,0,1,.508,1.159,1.482,1.482,0,0,1-.508,1.159,1.909,1.909,0,0,1-1.318.452,1.909,1.909,0,0,1-1.318-.452A1.482,1.482,0,0,1,53.906-13.3Zm5.107,7.92A6.236,6.236,0,0,1,59.629-8.2,4.4,4.4,0,0,1,61.4-10.1a5.323,5.323,0,0,1,2.705-.664,4.858,4.858,0,0,1,3.74,1.47,5.64,5.64,0,0,1,1.367,4v.117a5.472,5.472,0,0,1-1.372,3.921A4.871,4.871,0,0,1,64.121.2,4.927,4.927,0,0,1,60.5-1.157a5.29,5.29,0,0,1-1.475-3.667Zm3.291.205a3.932,3.932,0,0,0,.459,2.148,1.529,1.529,0,0,0,1.357.684q1.758,0,1.8-2.705v-.332q0-2.842-1.816-2.842-1.65,0-1.787,2.451Z" transform="translate(903 1881)" fill="#fff"/>
    <path id="Trazado_114664" data-name="Trazado 114664" d="M-8546-10119v79.879" transform="translate(777.247 15017.332) rotate(40)" fill="none" stroke="#000" stroke-width="2"/>
    <path id="Trazado_114665" data-name="Trazado 114665" d="M0,79.878V0" transform="translate(928.672 1833.656) rotate(140)" fill="none" stroke="#000" stroke-width="2"/>
  </g>
</svg>
